<svg width="20" height="20" viewBox="0 0 20 20" fill="none" xmlns="http://www.w3.org/2000/svg">
<path d="M15.8333 6.66666C15.1389 6.66666 14.5486 6.4236 14.0625 5.93749C13.5764 5.45138 13.3333 4.8611 13.3333 4.16666C13.3333 3.47221 13.5764 2.88193 14.0625 2.39582C14.5486 1.90971 15.1389 1.66666 15.8333 1.66666C16.5278 1.66666 17.118 1.90971 17.6042 2.39582C18.0903 2.88193 18.3333 3.47221 18.3333 4.16666C18.3333 4.8611 18.0903 5.45138 17.6042 5.93749C17.118 6.4236 16.5278 6.66666 15.8333 6.66666ZM3.33332 16.6667C2.87499 16.6667 2.48263 16.5035 2.15624 16.1771C1.82985 15.8507 1.66666 15.4583 1.66666 15V4.99999C1.66666 4.54166 1.82985 4.1493 2.15624 3.82291C2.48263 3.49652 2.87499 3.33332 3.33332 3.33332H11.75C11.6944 3.6111 11.6667 3.88888 11.6667 4.16666C11.6667 4.44443 11.6944 4.72221 11.75 4.99999C11.8472 5.44443 12.0069 5.85763 12.2292 6.23957C12.4514 6.62152 12.7222 6.95832 13.0417 7.24999L9.99999 9.16666L3.33332 4.99999V6.66666L9.99999 10.8333L14.3958 8.08332C14.6319 8.16666 14.868 8.22916 15.1042 8.27082C15.3403 8.31249 15.5833 8.33332 15.8333 8.33332C16.2778 8.33332 16.7153 8.26388 17.1458 8.12499C17.5764 7.9861 17.9722 7.77777 18.3333 7.49999V15C18.3333 15.4583 18.1701 15.8507 17.8437 16.1771C17.5174 16.5035 17.125 16.6667 16.6667 16.6667H3.33332Z" fill="#009DFF"/>
</svg>
