<svg width="22" height="22" viewBox="0 0 22 22" fill="none" xmlns="http://www.w3.org/2000/svg">
<path d="M11 2.20001C6.14021 2.20001 2.20001 6.14021 2.20001 11C2.20001 15.1235 5.03948 18.5739 8.86748 19.5287C8.82641 19.4099 8.80001 19.272 8.80001 19.1011V17.5971C8.44288 17.5971 7.84448 17.5971 7.69415 17.5971C7.09208 17.5971 6.55675 17.3382 6.29715 16.8571C6.00895 16.3225 5.95908 15.5049 5.24481 15.0047C5.03288 14.8383 5.19421 14.6483 5.43841 14.674C5.88941 14.8016 6.26341 15.1111 6.61541 15.5701C6.96595 16.0299 7.13095 16.1341 7.78581 16.1341C8.10335 16.1341 8.57855 16.1157 9.02588 16.0453C9.26641 15.4345 9.68221 14.872 10.1904 14.6065C7.26001 14.3051 5.86155 12.8473 5.86155 10.868C5.86155 10.0159 6.22455 9.19161 6.84128 8.49715C6.63888 7.80781 6.38441 6.40201 6.91901 5.86668C8.23755 5.86668 9.03468 6.72175 9.22608 6.95275C9.88315 6.72761 10.6047 6.60001 11.363 6.60001C12.1227 6.60001 12.8473 6.72761 13.5058 6.95421C13.695 6.72468 14.4929 5.86668 15.8143 5.86668C16.3511 6.40275 16.0937 7.81441 15.8891 8.50228C16.5022 9.19528 16.863 10.0173 16.863 10.868C16.863 12.8458 15.4667 14.3029 12.5407 14.6058C13.3459 15.026 13.9333 16.2067 13.9333 17.0962V19.1011C13.9333 19.1774 13.9165 19.2324 13.9077 19.2977C17.3367 18.0957 19.8 14.8397 19.8 11C19.8 6.14021 15.8598 2.20001 11 2.20001Z" fill="#009DFF"/>
</svg>
