<svg width="17" height="17" viewBox="0 0 17 17" fill="none" xmlns="http://www.w3.org/2000/svg">
<path d="M15.6866 2.22767C15.4316 2.01143 15.031 1.98049 14.6169 2.14675H14.6162C14.1807 2.32151 2.28751 7.42287 1.80335 7.63129C1.71529 7.66189 0.946209 7.94885 1.02543 8.58805C1.09615 9.16435 1.71427 9.40303 1.78975 9.43057L4.81337 10.4659C5.01397 11.1336 5.75347 13.5973 5.91701 14.1236C6.01901 14.4517 6.18527 14.8828 6.47665 14.9716C6.73233 15.0702 6.98665 14.9801 7.15121 14.8509L8.99979 13.1362L11.984 15.4635L12.055 15.506C12.2577 15.5958 12.4518 15.6407 12.6371 15.6407C12.7802 15.6407 12.9176 15.6138 13.0488 15.5601C13.496 15.3765 13.6748 14.9505 13.6935 14.9022L15.9225 3.31601C16.0585 2.69721 15.8695 2.38237 15.6866 2.22767ZM7.47999 10.88L6.45999 13.6L5.43999 10.2L13.26 4.41999L7.47999 10.88Z" fill="#009DFF"/>
</svg>
